<svg xmlns="http://www.w3.org/2000/svg" viewBox="0 0 176.37 55.98"><defs><style>.cls-1{fill:#231916;}.cls-2{fill:#3bb0d3;}</style></defs><title>Asset 2</title><g id="Layer_2" data-name="Layer 2"><g id="圖層_1" data-name="圖層 1"><path class="cls-1" d="M19.24,19.06H6.82v7.17H19.24v5.61H0V1.61H18.61V7.22H6.82V13.5H19.24Z"/><path class="cls-1" d="M28.51,9.91l2.15,3.68c.63,1.12,1.21,2.19,1.79,3.27h.09c.59-1.21,1.12-2.29,1.71-3.36l1.92-3.59h7.4L36.35,20.36l7.31,11.48H36l-2.2-3.95c-.62-1.07-1.16-2.2-1.7-3.32h-.14c-.53,1.17-1.12,2.25-1.65,3.32l-2.07,3.95H20.7l7.45-11.17L20.88,9.91Z"/><path class="cls-1" d="M77.38,3.81A3.4,3.4,0,0,1,73.7,7.22a3.36,3.36,0,0,1-3.54-3.41,3.62,3.62,0,0,1,7.22,0Zm-7,28V9.91h6.82V31.84Z"/><path class="cls-1" d="M86.86,9.91l3,10.18c.54,1.88.9,3.59,1.26,5.33h.13c.36-1.79.72-3.45,1.21-5.33L95.25,9.91h7.17L94.26,31.84H87.44l-8-21.93Z"/><path class="cls-1" d="M138.45,4V9.91h4.88v5h-4.88v7.94c0,2.64.67,3.86,2.69,3.86a8.51,8.51,0,0,0,2-.18l0,5.15a14.09,14.09,0,0,1-4.39.59,7.29,7.29,0,0,1-5.16-1.89c-1.26-1.3-1.89-3.41-1.89-6.5v-9h-2.91v-5h2.91V5.83Z"/><path class="cls-1" d="M165.53,26.55a28.32,28.32,0,0,0,.36,5.29h-6.14l-.41-2.2h-.13a7.89,7.89,0,0,1-6.28,2.69,6.72,6.72,0,0,1-7.08-6.73c0-5.69,5.11-8.38,12.87-8.38V17c0-1.21-.63-2.87-4-2.87a12.32,12.32,0,0,0-6.06,1.66l-1.25-4.4a18,18,0,0,1,8.52-2c7.31,0,9.59,4.31,9.59,9.51Zm-6.59-5.07c-3.59,0-6.37.85-6.37,3.45a2.45,2.45,0,0,0,2.69,2.6A3.78,3.78,0,0,0,158.81,25a4.85,4.85,0,0,0,.13-1.16Z"/><path class="cls-1" d="M169.55,0h6.82V31.84h-6.82Z"/><path class="cls-1" d="M3.88,52.34H1V55H4.23v.81H0v-7.5H4.06v.82H1v2.37h2.9Z"/><path class="cls-1" d="M9.59,55.85l-1-1.65c-.39-.64-.62-1.05-.85-1.48h0c-.21.43-.43.83-.81,1.49L6,55.85H4.92l2.29-3.79L5,48.35H6.13l1,1.76c.28.49.49.87.69,1.27h0c.22-.44.41-.79.68-1.27l1-1.76h1.12L8.38,52l2.34,3.85Z"/><path class="cls-1" d="M11.84,48.44a12.29,12.29,0,0,1,1.86-.14,3.08,3.08,0,0,1,2.1.62,2.06,2.06,0,0,1,.66,1.57,2.19,2.19,0,0,1-.58,1.6,3.11,3.11,0,0,1-2.29.83,3.64,3.64,0,0,1-.78-.07v3h-1Zm1,3.62a3.53,3.53,0,0,0,.8.08c1.17,0,1.88-.58,1.88-1.59s-.71-1.48-1.77-1.48a4.45,4.45,0,0,0-.91.07Z"/><path class="cls-1" d="M17.75,48.35h1V55h3.2v.81H17.75Z"/><path class="cls-1" d="M29,52C29,54.6,27.42,56,25.5,56s-3.37-1.55-3.37-3.82,1.47-3.94,3.47-3.94S29,49.79,29,52Zm-5.83.11c0,1.61.86,3,2.4,3S28,53.77,28,52.07c0-1.5-.78-3.06-2.39-3.06S23.16,50.5,23.16,52.14Z"/><path class="cls-1" d="M30.25,48.45a12.25,12.25,0,0,1,1.85-.15,3.09,3.09,0,0,1,2.17.61,1.91,1.91,0,0,1,.59,1.44,2,2,0,0,1-1.4,1.9v0a1.89,1.89,0,0,1,1.09,1.51,11.92,11.92,0,0,0,.58,2.06h-1a9.34,9.34,0,0,1-.49-1.79c-.22-1-.64-1.42-1.51-1.46h-.92v3.25h-1Zm1,3.42h1c1,0,1.69-.57,1.69-1.42s-.7-1.4-1.72-1.4a4.54,4.54,0,0,0-1,.08Z"/><path class="cls-1" d="M40.1,52.34H37.2V55h3.25v.81H36.22v-7.5h4.06v.82H37.2v2.37h2.9Z"/><path class="cls-1" d="M62,52.34H59.11V55h3.25v.81H58.13v-7.5h4.06v.82H59.11v2.37H62Z"/><path class="cls-1" d="M63.62,55.85v-7.5h1.07l2.39,3.8a20.9,20.9,0,0,1,1.33,2.44l0,0c-.09-1-.11-1.91-.11-3.08V48.35h.91v7.5h-1l-2.38-3.8a21.07,21.07,0,0,1-1.39-2.51l0,0c.06.94.07,1.84.07,3.09v3.2Z"/><path class="cls-1" d="M70.93,48.35h1V55h3.2v.81H70.93Z"/><path class="cls-1" d="M77.16,48.35v7.5h-1v-7.5Z"/><path class="cls-1" d="M84.57,55.52a6.68,6.68,0,0,1-2.31.41,3.51,3.51,0,0,1-3.85-3.78,3.75,3.75,0,0,1,4.06-3.87,4.8,4.8,0,0,1,1.88.34l-.25.79a3.7,3.7,0,0,0-1.65-.32,2.8,2.8,0,0,0-3,3,2.74,2.74,0,0,0,2.89,3,3.15,3.15,0,0,0,1.29-.2V52.69H82.1v-.78h2.47Z"/><path class="cls-1" d="M87,48.35v3.14h3.63V48.35h1v7.5h-1V52.34H87v3.51H86v-7.5Z"/><path class="cls-1" d="M94.72,49.18H92.44v-.83H98v.83H95.7v6.67h-1Z"/><path class="cls-1" d="M102.7,52.34H99.79V55H103v.81H98.81v-7.5h4.07v.82H99.79v2.37h2.91Z"/><path class="cls-1" d="M104.3,55.85v-7.5h1.07l2.39,3.8a21.08,21.08,0,0,1,1.34,2.44l0,0c-.09-1-.11-1.91-.11-3.08V48.35h.91v7.5h-1l-2.38-3.8a22.59,22.59,0,0,1-1.39-2.51l0,0c0,.94.06,1.84.06,3.09v3.2Z"/><path class="cls-1" d="M131.08,52.34h-2.9V55h3.25v.81H127.2v-7.5h4.06v.82h-3.08v2.37h2.9Z"/><path class="cls-1" d="M139,52.56c-.06-1.05-.13-2.31-.13-3.24h0c-.26.87-.57,1.82-.94,2.85l-1.33,3.64h-.73l-1.23-3.57c-.35-1.07-.64-2-.85-2.92h0c0,.94-.08,2.18-.15,3.32l-.2,3.21h-.92l.52-7.5h1.23L135.52,52c.32.92.56,1.75.76,2.53h0c.2-.76.47-1.58.8-2.53l1.34-3.63h1.23l.47,7.5h-1Z"/><path class="cls-1" d="M141.63,48.44a12.29,12.29,0,0,1,1.86-.14,3.06,3.06,0,0,1,2.1.62,2.06,2.06,0,0,1,.66,1.57,2.19,2.19,0,0,1-.58,1.6,3.09,3.09,0,0,1-2.29.83,3.64,3.64,0,0,1-.78-.07v3h-1Zm1,3.62a3.53,3.53,0,0,0,.8.08c1.17,0,1.88-.58,1.88-1.59s-.71-1.48-1.77-1.48a4.52,4.52,0,0,0-.91.07Z"/><path class="cls-1" d="M154,52c0,2.57-1.57,3.95-3.48,3.95s-3.37-1.55-3.37-3.82,1.47-3.94,3.47-3.94S154,49.79,154,52Zm-5.83.11c0,1.61.87,3,2.41,3s2.4-1.42,2.4-3.12c0-1.5-.78-3.06-2.39-3.06S148.13,50.5,148.13,52.14Z"/><path class="cls-1" d="M156.44,55.85l-1.9-7.5h1l.89,3.8c.22.93.42,1.87.55,2.59h0c.13-.74.36-1.63.62-2.6l1-3.79h1l.91,3.81c.21.89.41,1.78.53,2.57h0c.15-.82.36-1.66.6-2.59l1-3.79h1l-2.13,7.5h-1l-.94-3.9a21.14,21.14,0,0,1-.49-2.45h0a20,20,0,0,1-.58,2.45l-1.06,3.9Z"/><path class="cls-1" d="M168.51,52.34H165.6V55h3.25v.81h-4.23v-7.5h4.06v.82H165.6v2.37h2.91Z"/><path class="cls-1" d="M170.11,48.45A12.39,12.39,0,0,1,172,48.3a3.13,3.13,0,0,1,2.17.61,2,2,0,0,1,.59,1.44,2,2,0,0,1-1.41,1.9v0a1.87,1.87,0,0,1,1.09,1.51,13,13,0,0,0,.58,2.06h-1a9.34,9.34,0,0,1-.49-1.79c-.22-1-.63-1.42-1.51-1.46h-.91v3.25h-1Zm1,3.42h1c1,0,1.69-.57,1.69-1.42s-.7-1.4-1.73-1.4a4.42,4.42,0,0,0-.95.08Z"/><circle class="cls-1" cx="49.16" cy="52.41" r="1.77"/><circle class="cls-1" cx="118.64" cy="52.41" r="1.77"/><path class="cls-2" d="M115.15,9.24a11.64,11.64,0,1,0,11.63,11.63A11.65,11.65,0,0,0,115.15,9.24Zm0,17.46A5.83,5.83,0,1,1,121,20.87,5.83,5.83,0,0,1,115.15,26.7Z"/><rect class="cls-2" x="112.81" y="6.59" width="4.67" height="6.4"/><rect class="cls-2" x="113.66" y="7.45" width="2.97" height="4.7"/><rect class="cls-2" x="100.87" y="18.54" width="6.4" height="4.67"/><rect class="cls-2" x="101.72" y="19.39" width="4.7" height="2.97"/><rect class="cls-2" x="112.81" y="28.75" width="4.67" height="6.4"/><rect class="cls-2" x="113.66" y="29.6" width="2.97" height="4.7"/><rect class="cls-2" x="123.02" y="18.54" width="6.4" height="4.67"/><rect class="cls-2" x="123.87" y="19.39" width="4.7" height="2.97"/><rect class="cls-2" x="100.87" y="18.36" width="6.9" height="5.02"/><rect class="cls-2" x="122.53" y="18.36" width="6.9" height="5.02"/><rect class="cls-2" x="111.7" y="7.4" width="6.9" height="5.02" transform="translate(105.24 125.06) rotate(-90)"/><rect class="cls-2" x="111.7" y="29.19" width="6.9" height="5.02" transform="translate(83.44 146.85) rotate(-90)"/><path class="cls-2" d="M56,9.24A11.64,11.64,0,1,0,67.67,20.87,11.65,11.65,0,0,0,56,9.24ZM56,26.7a5.83,5.83,0,1,1,5.83-5.83A5.83,5.83,0,0,1,56,26.7Z"/><path class="cls-2" d="M48.86,25.58l.7,1-9.9,14.84h8.12l3.88-7.62c.54-1.07,1.12-2.15,1.66-3.32h.14l-1.08-1.78Z"/></g></g></svg>